<?xml version="1.0" encoding="UTF-8" standalone="no"?>
<!-- Uploaded to: SVG Repo, www.svgrepo.com, Generator: SVG Repo Mixer Tools -->

<svg
   width="800"
   height="375.96606"
   viewBox="0 -67.5 256 120.30914"
   version="1.1"
   preserveAspectRatio="xMidYMid"
   id="svg1"
   sodipodi:docname="rancher-logo.svg"
   inkscape:version="1.3.1 (9b9bdc1480, 2023-11-25, custom)"
   xmlns:inkscape="http://www.inkscape.org/namespaces/inkscape"
   xmlns:sodipodi="http://sodipodi.sourceforge.net/DTD/sodipodi-0.dtd"
   xmlns="http://www.w3.org/2000/svg"
   xmlns:svg="http://www.w3.org/2000/svg">
  <defs
     id="defs1" />
  <sodipodi:namedview
     id="namedview1"
     pagecolor="#ffffff"
     bordercolor="#666666"
     borderopacity="1.0"
     inkscape:showpageshadow="2"
     inkscape:pageopacity="0.0"
     inkscape:pagecheckerboard="0"
     inkscape:deskcolor="#d1d1d1"
     showgrid="false"
     inkscape:zoom="1.02"
     inkscape:cx="399.5098"
     inkscape:cy="189.21569"
     inkscape:window-width="1866"
     inkscape:window-height="1016"
     inkscape:window-x="0"
     inkscape:window-y="0"
     inkscape:window-maximized="1"
     inkscape:current-layer="svg1" />
  <g
     id="g1"
     transform="translate(0,-67.5)">
    <path
       d="m 158.08346,0 c 1.66385,0 3.07172,4.4795958 3.07172,9.8551108 v 0 2.5597692 c 0.25598,-0.127989 0.51195,-0.127989 0.89592,-0.127989 v 0 h 54.52308 c 5.37551,0 9.85511,4.479596 9.85511,9.9831 v 0 51.195381 c 0,5.375515 -4.4796,9.85511 -9.85511,9.85511 v 0 h -26.49361 c -5.37552,0 -9.85511,-4.479595 -9.85511,-9.85511 v 0 -20.094187 c -2.43178,1.791838 -3.96764,4.607584 -3.96764,7.807295 v 0 16.766488 c 0,5.375514 4.47959,9.85511 9.85511,9.85511 v 0 h 17.27844 v 26.493612 c 0,3.3277 -2.68776,6.01546 -6.01546,6.01546 v 0 h -32.50907 c -3.3277,0 -6.01545,-2.68776 -6.01545,-6.01546 v 0 -24.317808 c 0,-3.3277 -2.68776,-6.015457 -6.01546,-6.015457 v 0 H 71.81924 c -3.327699,0 -6.015457,2.687757 -6.015457,6.015457 v 0 24.317808 c 0,3.3277 -2.687757,6.01546 -6.015457,6.01546 v 0 H 27.279259 c -3.3277,0 -6.015457,-2.68776 -6.015457,-6.01546 v 0 -70.137674 L 6.6731181,55.674977 C 6.0331758,56.186931 5.1372567,56.058942 4.6253028,55.419 v 0 L 0.40168392,50.42745 C -0.11026989,49.915496 -0.11026989,49.147566 0.27369547,48.635612 v 0 L 21.775755,15.74258 c 1.023908,-2.175804 3.071723,-3.583677 5.503504,-3.583677 v 0 H 141.44496 c 3.71166,0 6.52741,3.3277 5.88747,7.039365 v 0 l -2.3038,13.950741 c -0.63994,3.711665 2.17581,7.039365 5.88747,7.039365 v 0 h 23.03792 c 2.94374,0 5.37552,-2.047815 5.88747,-4.863561 -1.27988,0.511954 -2.94373,0.767931 -4.60758,0.767931 v 0 h -16.38252 c -5.37552,0 -9.08718,-4.351608 -8.19126,-9.727123 v 0 L 153.47587,9.7271224 C 154.37179,4.3516074 156.41961,0 158.08346,0 Z m 90.35984,0 c 1.66385,0 3.71167,4.3516074 4.60759,9.7271224 v 0 l 2.81574,16.6384986 c 0.89592,5.375515 -2.81574,9.727123 -8.31925,9.727123 v 0 h -17.27844 v -12.030915 0 h 5.24753 c 5.37552,0 9.85511,-4.479596 9.85511,-9.855111 v 0 -4.3516072 C 245.37158,4.4795958 246.77946,0 248.4433,0 Z"
       fill="#0075a8"
       id="path1" />
  </g>
</svg>
